<svg width="85" height="63" viewBox="0 0 85 63" fill="none" xmlns="http://www.w3.org/2000/svg">
<path d="M53.7034 0C49.5299 0 45.5533 0.851501 41.9187 2.36989C38.4698 1.00221 34.7311 0.226062 30.8103 0.226062C13.8969 0.226062 0.138672 14.1741 0.138672 31.3172C0.138672 48.464 13.8969 62.4121 30.8103 62.4121C34.7311 62.4121 38.4698 61.6321 41.9224 60.2682C45.5533 61.7904 49.5299 62.6381 53.7034 62.6381C70.7655 62.6381 84.598 48.6147 84.598 31.3172C84.5943 14.0234 70.7655 0 53.7034 0ZM30.8103 54.6996C18.0964 54.6996 7.7499 44.214 7.7499 31.3209C7.7499 18.4316 18.0927 7.94609 30.8103 7.94609C31.5721 7.94609 32.3229 7.98754 33.0661 8.06289C26.7817 13.7973 22.8088 22.0788 22.8088 31.3247C22.8088 40.5707 26.7854 48.8521 33.0661 54.5865C32.3229 54.6544 31.5721 54.6996 30.8103 54.6996Z" fill="#1EA276"/>
</svg>
